<svg width="400" height="400" viewBox="0 0 400 400" xmlns="http://www.w3.org/2000/svg">
  <!-- Background -->
  <rect width="400" height="400" fill="#8B4513"/>
  
  <!-- Thali Plate -->
  <circle cx="200" cy="200" r="150" fill="#C0C0C0" stroke="#A0A0A0" stroke-width="3"/>
  
  <!-- Rice in center -->
  <circle cx="200" cy="200" r="40" fill="#FFF8DC"/>
  
  <!-- Small bowls around the thali -->
  <!-- Top left - Paneer curry -->
  <circle cx="120" cy="120" r="25" fill="#FF6B35"/>
  <circle cx="120" cy="120" r="15" fill="#FF4500"/>
  
  <!-- Top right - Dal -->
  <circle cx="280" cy="120" r="25" fill="#FFD700"/>
  <circle cx="280" cy="120" r="15" fill="#FFA500"/>
  
  <!-- Bottom left - Aloo Gobi -->
  <circle cx="120" cy="280" r="25" fill="#FFA500"/>
  <circle cx="120" cy="280" r="15" fill="#FF8C00"/>
  
  <!-- Bottom right - Raita -->
  <circle cx="280" cy="280" r="25" fill="#F0F8FF"/>
  <circle cx="280" cy="280" r="15" fill="#E0E0E0"/>
  
  <!-- Left side - Green vegetable -->
  <circle cx="80" cy="200" r="25" fill="#228B22"/>
  <circle cx="80" cy="200" r="15" fill="#32CD32"/>
  
  <!-- Right side - Sweet -->
  <circle cx="320" cy="200" r="25" fill="#8B0000"/>
  <circle cx="320" cy="200" r="15" fill="#DC143C"/>
  
  <!-- Roti -->
  <ellipse cx="200" cy="160" rx="30" ry="15" fill="#DEB887" transform="rotate(45 200 160)"/>
  
  <!-- Papad -->
  <ellipse cx="200" cy="240" rx="40" ry="8" fill="#D2691E" transform="rotate(0 200 240)"/>
</svg>



